<?xml version="1.0" encoding="UTF-8" standalone="no"?>
<!DOCTYPE svg PUBLIC "-//W3C//DTD SVG 1.1//EN" "http://www.w3.org/Graphics/SVG/1.1/DTD/svg11.dtd">
<svg width="100%" height="100%" viewBox="0 0 1600 1600" version="1.1" xmlns="http://www.w3.org/2000/svg" xmlns:xlink="http://www.w3.org/1999/xlink" xml:space="preserve" xmlns:serif="http://www.serif.com/" style="fill-rule:evenodd;clip-rule:evenodd;stroke-linejoin:round;stroke-miterlimit:2;">
    <g>
        <path d="M377.065,801.822C376.711,725.254 397.337,651.256 434.776,587.043L496.976,623.308C465.915,676.582 448.771,737.966 449.064,801.489L377.065,801.822ZM801.808,377.064L801.517,449.063C771.034,448.94 740.038,452.831 709.191,461.097C678.344,469.362 649.555,481.49 623.218,496.838L586.966,434.63C618.702,416.136 653.386,401.51 690.556,391.55C727.726,381.59 765.077,376.915 801.808,377.064ZM1167.18,590.109L1104.66,625.821C1073.16,570.661 1027.62,526.074 974.08,495.468L1009.81,432.961C1074.34,469.851 1129.2,523.623 1167.18,590.109ZM1165.22,1012.96L1103.02,976.692C1134.09,923.418 1151.23,862.034 1150.94,798.511L1222.93,798.178C1223.29,874.746 1202.66,948.744 1165.22,1012.96ZM798.191,1222.94L798.482,1150.94C828.965,1151.06 859.961,1147.17 890.809,1138.9C921.656,1130.64 950.445,1118.51 976.782,1103.16L1013.03,1165.37C981.298,1183.86 946.614,1198.49 909.444,1208.45C872.273,1218.41 834.923,1223.09 798.191,1222.94ZM432.817,1009.89L495.336,974.179C526.844,1029.34 572.384,1073.93 625.92,1104.53L590.186,1167.04C525.657,1130.15 470.795,1076.38 432.817,1009.89Z" style="fill:white;"/>
        <path d="M434.776,1012.96C397.337,948.745 376.712,874.747 377.065,798.18L449.064,798.512C448.771,862.036 465.915,923.419 496.976,976.693L434.776,1012.96ZM590.185,432.962L625.919,495.468C572.383,526.074 526.844,570.662 495.336,625.822L432.816,590.11C470.794,523.624 525.656,469.852 590.185,432.962ZM1013.03,434.63L976.782,496.838C950.445,481.49 921.656,469.362 890.809,461.097C859.962,452.831 828.966,448.94 798.483,449.063L798.192,377.064C834.923,376.915 872.274,381.59 909.444,391.55C946.614,401.51 981.298,416.136 1013.03,434.63ZM1222.93,801.82L1150.94,801.488C1151.23,737.964 1134.09,676.581 1103.02,623.307L1165.22,587.042C1202.66,651.255 1223.29,725.253 1222.93,801.82ZM1009.82,1167.04L974.081,1104.53C1027.62,1073.93 1073.16,1029.34 1104.66,974.178L1167.18,1009.89C1129.21,1076.38 1074.34,1130.15 1009.82,1167.04ZM586.965,1165.37L623.217,1103.16C649.555,1118.51 678.343,1130.64 709.191,1138.9C740.038,1147.17 771.034,1151.06 801.517,1150.94L801.808,1222.94C765.077,1223.09 727.726,1218.41 690.556,1208.45C653.386,1198.49 618.701,1183.86 586.965,1165.37Z" style="fill:rgb(255,0,0);"/>
    </g>
    <g>
        <rect x="120" y="760.609" width="480" height="80" style="fill-opacity:0.85;"/>
        <rect x="0" y="760.304" width="120" height="80" style="fill:rgb(255,0,0);"/>
        <rect x="1000" y="760.304" width="480" height="80" style="fill-opacity:0.85;"/>
        <rect x="1480" y="760" width="120" height="80" style="fill:rgb(255,0,0);"/>
    </g>
    <g>
        <path d="M839.696,600.304L759.696,600.304L759.696,120.304L839.696,120.304L839.696,600.304Z" style="fill-opacity:0.85;"/>
        <path d="M840,120.304L760,120.304L760,0.304L840,0.304L840,120.304Z" style="fill:rgb(0,0,255);"/>
        <path d="M840,1000.3L760,1000.3L760,1480.3L840,1480.3L840,1000.3Z" style="fill-opacity:0.85;"/>
        <path d="M840.304,1480.3L760.304,1480.3L760.304,1600.3L840.304,1600.3L840.304,1480.3Z" style="fill:rgb(0,0,255);"/>
    </g>
</svg>
