<?xml version="1.0" encoding="UTF-8" standalone="no"?>
<!DOCTYPE svg PUBLIC "-//W3C//DTD SVG 1.1//EN" "http://www.w3.org/Graphics/SVG/1.1/DTD/svg11.dtd">
<svg width="100%" height="100%" viewBox="0 0 1600 1600" version="1.1" xmlns="http://www.w3.org/2000/svg" xmlns:xlink="http://www.w3.org/1999/xlink" xml:space="preserve" xmlns:serif="http://www.serif.com/" style="fill-rule:evenodd;clip-rule:evenodd;stroke-linejoin:round;stroke-miterlimit:2;">
    <g id="arrow">
        <path id="path3" d="M1238.16,465.813C1200.45,470.321 1172.07,502.298 1172.06,540.271L1172.06,1061.73C1172.07,1091.6 1189.8,1118.63 1217.21,1130.52C1244.62,1142.41 1276.48,1136.9 1298.3,1116.49L1576.97,855.764C1608.65,826.122 1608.65,775.87 1576.97,746.229L1298.3,485.504C1282.14,470.391 1260.13,463.185 1238.16,465.813Z" style="fill-rule:nonzero;"/>
        <path id="path4" d="M1247.06,540.272L1525.73,800.996L1247.06,1061.73L1247.06,540.272Z" style="fill:white;fill-rule:nonzero;"/>
    </g>
    <g id="bracket">
        <path id="path5" d="M247.986,0.289C175.62,0.289 115.709,54.825 115.709,128.691L115.709,182.094C115.709,255.96 175.62,310.498 247.986,310.498L346.342,310.498C376.809,310.498 394.666,318.557 405.932,329.455C417.197,340.354 426.975,357.561 426.975,395.707L426.975,1207.33C426.975,1248.59 417.796,1266.45 409.27,1275.23C400.743,1284 385.352,1292.54 346.342,1292.54L242.586,1292.54C170.22,1292.54 115.373,1356.24 115.373,1420.94L115.373,1474.34C115.373,1512.4 132.13,1542.6 153.846,1564.37C175.561,1586.14 204.519,1602.75 242.586,1602.75L398.219,1602.75C493.192,1602.75 579.877,1568.75 640.363,1506.65C700.849,1444.55 733.187,1356.83 732.605,1260.28L732.607,1260.73L732.607,342.303C732.607,246.008 700.388,158.55 640.07,96.459C579.753,34.368 493.192,0.289 398.219,0.289L247.986,0.289Z" style="fill-rule:nonzero;"/>
        <path id="path6" d="M247.987,75.289C216.254,75.289 190.709,101.077 190.709,128.691L190.709,182.095C190.709,209.709 216.254,235.498 247.987,235.498L346.342,235.498C436.795,235.498 501.974,288.9 501.974,395.706L501.974,1207.33C501.974,1314.13 450.097,1367.54 346.342,1367.54L242.587,1367.54C210.853,1367.54 190.372,1393.33 190.372,1420.94L190.372,1474.35C190.372,1501.96 217.156,1527.75 242.587,1527.75L398.219,1527.75C553.852,1527.75 658.571,1420.94 657.607,1260.73L657.607,342.303C657.607,182.095 553.852,75.289 398.219,75.289L247.987,75.289Z" style="fill:white;fill-rule:nonzero;"/>
    </g>
    <g id="arrow1" serif:id="arrow">
        <path id="path7" d="M362.238,465.813C340.269,463.185 318.26,470.391 302.1,485.504L23.426,746.229C-8.25,775.87 -8.251,826.121 23.424,855.764L302.1,1116.49C323.922,1136.9 355.775,1142.41 383.184,1130.52C410.594,1118.63 428.332,1091.6 428.34,1061.73L428.34,540.271C428.331,502.298 399.944,470.321 362.238,465.813Z" style="fill-rule:nonzero;"/>
        <path id="path8" d="M353.34,1061.73L74.665,800.996L353.34,540.272L353.34,1061.73Z" style="fill:white;fill-rule:nonzero;"/>
    </g>
    <g id="bracket1" serif:id="bracket">
        <path id="path9" d="M1200.55,0.289C1105.58,0.289 1018.89,34.287 958.404,96.387C897.918,158.486 865.583,246.211 866.164,342.756L866.162,342.303L866.162,1260.73C866.162,1357.03 898.38,1444.49 958.697,1506.58C1019.01,1568.67 1105.58,1602.75 1200.55,1602.75L1350.78,1602.75C1423.15,1602.75 1483.06,1548.21 1483.06,1474.34L1483.06,1420.94C1483.06,1347.08 1423.15,1292.54 1350.78,1292.54L1252.43,1292.54C1221.96,1292.54 1204.1,1284.48 1192.84,1273.58C1181.57,1262.68 1171.8,1245.48 1171.8,1207.33L1171.8,395.707C1171.8,354.447 1180.97,336.586 1189.5,327.809C1198.02,319.032 1213.42,310.498 1252.43,310.498L1356.18,310.498C1428.55,310.498 1483.4,246.793 1483.4,182.094L1483.4,128.691C1483.4,90.636 1466.64,60.434 1444.92,38.666C1423.21,16.898 1394.25,0.289 1356.18,0.289L1200.55,0.289Z" style="fill-rule:nonzero;"/>
        <path id="path10" d="M1350.78,1527.75C1382.52,1527.75 1408.06,1501.96 1408.06,1474.35L1408.06,1420.94C1408.06,1393.33 1382.52,1367.54 1350.78,1367.54L1252.43,1367.54C1161.97,1367.54 1096.79,1314.13 1096.79,1207.33L1096.79,395.706C1096.79,288.9 1148.67,235.498 1252.43,235.498L1356.18,235.498C1387.91,235.498 1408.4,209.709 1408.4,182.095L1408.4,128.691C1408.4,101.077 1381.61,75.289 1356.18,75.289L1200.55,75.289C1044.92,75.289 940.197,182.095 941.162,342.303L941.162,1260.73C941.162,1420.94 1044.92,1527.75 1200.55,1527.75L1350.78,1527.75Z" style="fill:white;fill-rule:nonzero;"/>
    </g>
</svg>
