<?xml version="1.0" encoding="UTF-8" standalone="no"?>
<!DOCTYPE svg PUBLIC "-//W3C//DTD SVG 1.1//EN" "http://www.w3.org/Graphics/SVG/1.1/DTD/svg11.dtd">
<svg width="100%" height="100%" viewBox="0 0 1600 1600" version="1.1" xmlns="http://www.w3.org/2000/svg" xmlns:xlink="http://www.w3.org/1999/xlink" xml:space="preserve" xmlns:serif="http://www.serif.com/" style="fill-rule:evenodd;clip-rule:evenodd;">
    <path id="path1" d="M563.719,66.221L378.046,251.894L188.651,63.319L63.412,188.376L252.76,377.238L65.701,564.356L191.849,690.323L379.152,503.173L567.948,692.454L693.143,567.992L503.787,378.635L690.565,191.732L563.719,66.221Z" style="fill:white;fill-rule:nonzero;stroke:black;stroke-width:88.7px;"/>
    <g id="use5368">
        <g id="g11">
            <path id="path10" d="M949.759,450.05L949.759,750.78" style="fill:none;fill-rule:nonzero;stroke:black;stroke-width:250px;stroke-linecap:round;stroke-miterlimit:4.3;"/>
            <path id="path11" d="M949.759,450.05L949.759,750.78" style="fill:none;fill-rule:nonzero;stroke:white;stroke-width:100px;stroke-linecap:round;"/>
        </g>
    </g>
    <g id="use5368-7">
        <g id="g11-7">
            <path id="path10-4" d="M950.06,1149.8L950.06,1450.53" style="fill:none;fill-rule:nonzero;stroke:black;stroke-width:250px;stroke-linecap:round;stroke-miterlimit:4.3;"/>
            <path id="path11-9" d="M950.06,1149.8L950.06,1450.53" style="fill:none;fill-rule:nonzero;stroke:white;stroke-width:100px;stroke-linecap:round;"/>
        </g>
    </g>
    <g id="use5368-8">
        <g id="g11-6">
            <path id="path10-8" d="M449.219,950.532L749.949,950.532" style="fill:none;fill-rule:nonzero;stroke:black;stroke-width:250px;stroke-linecap:round;stroke-miterlimit:4.3;"/>
            <path id="path11-6" d="M449.219,950.532L749.949,950.532" style="fill:none;fill-rule:nonzero;stroke:white;stroke-width:100px;stroke-linecap:round;"/>
        </g>
    </g>
    <g id="use5368-7-3">
        <g id="g11-7-0">
            <path id="path10-4-1" d="M1148.97,950.231L1449.7,950.231" style="fill:none;fill-rule:nonzero;stroke:black;stroke-width:250px;stroke-linecap:round;stroke-miterlimit:4.3;"/>
            <path id="path11-9-9" d="M1148.97,950.231L1449.7,950.231" style="fill:none;fill-rule:nonzero;stroke:white;stroke-width:100px;stroke-linecap:round;"/>
        </g>
    </g>
</svg>
