<?xml version="1.0" encoding="UTF-8" standalone="no"?>
<!DOCTYPE svg PUBLIC "-//W3C//DTD SVG 1.1//EN" "http://www.w3.org/Graphics/SVG/1.1/DTD/svg11.dtd">
<svg width="100%" height="100%" viewBox="0 0 1600 1600" version="1.1" xmlns="http://www.w3.org/2000/svg" xmlns:xlink="http://www.w3.org/1999/xlink" xml:space="preserve" xmlns:serif="http://www.serif.com/" style="fill-rule:evenodd;clip-rule:evenodd;stroke-linecap:round;stroke-linejoin:round;">
    <g id="use5350">
        <path id="path22" d="M1547.91,528.922C1547.91,617.064 1473.78,688.023 1381.7,688.023L218.217,688.023C126.137,688.022 52.007,617.063 52.007,528.921" style="fill:white;fill-rule:nonzero;stroke:rgb(13,13,13);stroke-width:103.5px;"/>
        <path id="path23" d="M467.532,361.324L799.957,51.614L1132.38,361.324L966.168,520.426L799.957,369.818L633.746,520.426L463.026,361.324" style="fill:white;fill-rule:nonzero;stroke:black;stroke-width:103.5px;"/>
        <path id="path24" d="M1547.91,1066.19C1547.91,978.053 1473.78,907.094 1381.7,907.094L218.217,907.094C126.137,907.094 52.007,978.054 52.007,1066.2" style="fill:white;fill-rule:nonzero;stroke:rgb(13,13,13);stroke-width:103.5px;"/>
        <path id="path25" d="M467.532,1236.59L799.957,1546.3L1132.38,1236.59L966.168,1077.49L799.957,1228.1L633.746,1077.49L463.026,1236.59" style="fill:white;fill-rule:nonzero;stroke:black;stroke-width:103.5px;"/>
    </g>
</svg>
