<?xml version="1.0" encoding="UTF-8" standalone="no"?>
<!DOCTYPE svg PUBLIC "-//W3C//DTD SVG 1.1//EN" "http://www.w3.org/Graphics/SVG/1.1/DTD/svg11.dtd">
<svg width="100%" height="100%" viewBox="0 0 1600 1058" version="1.1" xmlns="http://www.w3.org/2000/svg" xmlns:xlink="http://www.w3.org/1999/xlink" xml:space="preserve" xmlns:serif="http://www.serif.com/" style="fill-rule:evenodd;clip-rule:evenodd;stroke-linejoin:round;stroke-miterlimit:2;">
    <g id="use5330">
        <g id="path25">
            <path id="path1" d="M49.615,257.827L800.051,1008.26L1550.49,257.827L1342.03,49.373L800.051,591.354L258.07,49.373L49.615,257.827" style="fill:white;fill-rule:nonzero;"/>
            <path id="path2" d="M14.779,292.542L765.092,1043.47C784.42,1062.97 815.935,1062.97 835.261,1043.47L1585.57,292.542C1604.66,273.286 1604.66,242.244 1585.57,222.988L1376.91,14.329C1357.66,-4.759 1326.62,-4.759 1307.36,14.329L800.177,521.513L292.993,14.329C273.737,-4.759 242.695,-4.759 223.439,14.329L14.779,222.988C-4.312,242.243 -4.312,273.287 14.779,292.542ZM119.417,257.457L257.908,118.966L800.044,661.368L1341.83,118.966L1480.32,258.073L800.177,938.217L119.417,257.457Z" style="fill-rule:nonzero;"/>
        </g>
    </g>
</svg>
