<?xml version="1.0" encoding="UTF-8" standalone="no"?>
<!DOCTYPE svg PUBLIC "-//W3C//DTD SVG 1.1//EN" "http://www.w3.org/Graphics/SVG/1.1/DTD/svg11.dtd">
<svg width="100%" height="100%" viewBox="0 0 1600 1600" version="1.1" xmlns="http://www.w3.org/2000/svg" xmlns:xlink="http://www.w3.org/1999/xlink" xml:space="preserve" xmlns:serif="http://www.serif.com/" style="fill-rule:evenodd;clip-rule:evenodd;stroke-linecap:round;stroke-linejoin:round;">
    <g id="use5322">
        <path id="path18" d="M48.734,1555.91L48.734,1316.18L194.555,1302.18L194.555,1142.36L793.883,543.034L927.749,676.9" style="fill:white;fill-rule:nonzero;stroke:black;stroke-width:100px;"/>
        <path id="use18" d="M48.735,1555.91L288.467,1555.91L302.465,1410.09L462.286,1410.09L1061.62,810.766L927.749,676.9" style="fill:white;fill-rule:nonzero;stroke:black;stroke-width:100px;"/>
        <path id="path19" d="M448.286,1156.36L767.928,836.72" style="fill:none;fill-rule:nonzero;stroke:black;stroke-width:100px;"/>
        <path id="path20" d="M847.838,277.346L1327.3,756.809L1167.48,916.63L688.018,437.167L847.839,277.347" style="fill:white;fill-rule:nonzero;stroke:black;stroke-width:100px;"/>
        <path id="path21" d="M1330.58,51.352C1269.53,50.467 1210.65,74.355 1167.48,117.528L927.748,357.259L1247.39,676.901L1487.12,437.17C1574.8,349.495 1574.8,205.203 1487.12,117.528C1445.55,75.959 1389.36,52.205 1330.58,51.352Z" style="fill:white;fill-rule:nonzero;stroke:rgb(19,19,19);stroke-width:100px;"/>
    </g>
</svg>
