<?xml version="1.0" encoding="UTF-8" standalone="no"?>
<!DOCTYPE svg PUBLIC "-//W3C//DTD SVG 1.1//EN" "http://www.w3.org/Graphics/SVG/1.1/DTD/svg11.dtd">
<svg width="100%" height="100%" viewBox="0 0 1200 1200" version="1.1" xmlns="http://www.w3.org/2000/svg" xmlns:xlink="http://www.w3.org/1999/xlink" xml:space="preserve" xmlns:serif="http://www.serif.com/" style="fill-rule:evenodd;clip-rule:evenodd;stroke-linejoin:round;stroke-miterlimit:2;">
    <g id="use5368">
        <g id="g11">
            <path id="path11" d="M520.001,0.002L520.002,440.002L680.004,440.003L680.004,0.003L520.001,0.002Z" style="fill:white;fill-rule:nonzero;"/>
        </g>
    </g>
    <path id="path1-07" d="M0.002,520.004L520.002,519.999L520,0.002L440.001,0.01L440.001,439.999L0.005,440L0.002,520.004Z" style="fill-opacity:0.65;fill-rule:nonzero;"/>
    <g id="use5368-9">
        <g id="g11-9">
            <path id="path11-5" d="M1200,520.004L759.999,520.005L759.998,680.007L1200,680.007L1200,520.004Z" style="fill:white;fill-rule:nonzero;"/>
        </g>
    </g>
    <path id="path1-07-1" d="M679.997,0.005L680.002,520.005L1200,520.003L1199.99,440.004L760,440.004L759.999,0.008L679.997,0.005Z" style="fill-opacity:0.65;fill-rule:nonzero;"/>
    <g id="use5368-2">
        <g id="g11-5">
            <path id="path11-3" d="M0.004,680.003L440.004,680.002L440.005,520L0.005,520L0.004,680.003Z" style="fill:white;fill-rule:nonzero;"/>
        </g>
    </g>
    <path id="path1-07-6" d="M520.006,1200L520.001,680.002L0.004,680.004L0.012,760.002L440.001,760.003L440.002,1200L520.006,1200Z" style="fill-opacity:0.65;fill-rule:nonzero;"/>
    <g id="use5368-3">
        <g id="g11-0">
            <path id="path11-0" d="M680.003,1199.99L680.002,759.993L520,759.992L520,1199.99L680.003,1199.99Z" style="fill:white;fill-rule:nonzero;"/>
        </g>
    </g>
    <path id="path1-07-63" d="M1200,679.991L680.002,680.001L680.004,1200L760.002,1199.99L760.003,759.999L1200,759.998L1200,679.991Z" style="fill-opacity:0.65;fill-rule:nonzero;"/>
</svg>
