<?xml version="1.0" encoding="UTF-8" standalone="no"?>
<!DOCTYPE svg PUBLIC "-//W3C//DTD SVG 1.1//EN" "http://www.w3.org/Graphics/SVG/1.1/DTD/svg11.dtd">
<svg width="100%" height="100%" viewBox="0 0 1600 1600" version="1.1" xmlns="http://www.w3.org/2000/svg" xmlns:xlink="http://www.w3.org/1999/xlink" xml:space="preserve" xmlns:serif="http://www.serif.com/" style="fill-rule:evenodd;clip-rule:evenodd;">
    <path id="path1" d="M654.37,59.456L1538.09,943.172C1566.83,971.916 1573.3,1027.25 1538.09,1047.73C1482.75,1079.89 1440.09,1111.42 1480.24,1146.9C1500.89,1166.4 1500.89,1199.26 1480.24,1218.76L1213.45,1485.55C1193.98,1506.28 1161.06,1506.28 1141.59,1485.55C1106.47,1445.21 1079.61,1483.03 1047.45,1538.36C1026.97,1573.4 971.639,1567.11 942.894,1538.36L59.178,654.648C30.198,625.471 30.48,578.289 59.807,549.461C103.103,506.164 158.167,500.865 109.571,452.268C89.727,432.424 89.727,400.251 109.571,380.407L375.997,113.981C395.841,94.137 428.014,94.137 447.858,113.981C496.455,162.577 506.785,102.483 550.081,59.186C579.054,30.705 625.545,30.825 654.37,59.456Z" style="fill:white;stroke:black;stroke-width:75.21px;"/>
    <path id="path1-4" d="M490.484,307.419C501.864,318.349 500.45,338.202 487.313,351.953L451.555,387.623C451.989,404.435 458.586,419.394 470.147,429.778C478.624,438.735 489.712,444.898 502.348,447.675C537.197,432.251 574.183,437.25 596.953,460.462C610.392,473.828 618.04,492.223 618.679,512.715C619.125,527.7 612.755,545.075 614.908,558.696C617.477,571.676 623.645,583.079 632.779,591.735C643.916,604.28 660.473,610.918 678.852,610.207L712.151,576.99C725.914,563.816 745.844,562.433 756.726,573.897C768.016,584.85 766.567,604.635 753.47,618.346L717.712,654.016C718.122,670.836 724.723,685.802 736.304,696.17C744.835,705.359 756.081,711.675 768.929,714.492C803.778,699.068 840.765,704.067 863.534,727.279C876.985,740.59 884.61,758.972 885.175,779.447C886.253,815.335 864.066,860.696 924.068,861.373L960.236,825.294C973.999,812.121 993.93,810.738 1004.81,822.201C1016.19,833.131 1014.78,852.984 1001.64,866.735L965.882,902.405C966.606,919.103 973.166,933.976 984.474,944.56C995.079,955.175 1026.11,981.527 1037.97,983.771C1072.78,968.334 1109.73,973.301 1132.49,996.474C1145.99,1009.79 1153.65,1028.21 1154.22,1048.73C1154.66,1063.71 1148.29,1081.09 1150.53,1094.79C1153.08,1107.79 1159.25,1119.19 1168.4,1127.83C1179.54,1140.38 1196.1,1147.02 1214.48,1146.3L1247.77,1113.09C1261.56,1099.98 1281.43,1098.6 1292.35,1109.99C1303.73,1120.92 1302.32,1140.78 1289.18,1154.53L1154.04,1289.34C1140.25,1302.44 1120.38,1303.82 1109.46,1292.43C1098.08,1281.5 1099.49,1261.65 1112.63,1247.9L1147.98,1212.63C1148.72,1194.27 1142.11,1177.72 1129.57,1166.57C1121.24,1157.7 1110.3,1151.61 1097.81,1148.91C1081.77,1145.75 1069.01,1153.05 1051.86,1152.87C1030.48,1152.7 1011.21,1145.05 997.263,1131.2C974.809,1107.63 970.067,1070.77 984.986,1035.78C982.657,1024.03 956.488,993.332 945.967,982.802C935.322,971.575 920.478,965.01 903.81,964.154L866.412,1001.46C852.628,1014.56 832.757,1015.94 821.838,1004.55C810.458,993.623 811.871,973.77 825.008,960.019L863.225,921.896C862.101,862.825 818.066,883.863 782.728,883.507C761.365,883.313 742.095,875.662 728.137,861.833C705.672,838.236 700.9,801.368 715.774,766.329C712.884,754.02 706.748,743.231 697.931,734.957C687.577,723.251 672.609,716.475 655.725,715.85L618.327,753.155C604.543,766.258 584.672,767.637 573.752,756.248C562.298,745.356 563.716,725.444 576.923,711.714L612.271,676.453C612.901,658.278 606.312,641.91 593.912,630.845C585.553,621.948 574.582,615.835 562.068,613.101C546.315,609.825 533.644,617.208 516.656,617.199C495.293,617.005 476.023,609.355 462.064,595.525C439.629,571.911 434.858,535.06 449.702,500.021C446.778,487.544 440.52,476.629 431.52,468.309C421.098,456.801 406.159,450.193 389.363,449.662L351.965,486.967C338.181,500.07 318.31,501.449 307.39,490.06C296.01,479.131 297.424,459.277 310.561,445.526L445.909,310.513C459.693,297.409 479.564,296.03 490.484,307.419L490.484,307.419Z"/>
</svg>
