<?xml version="1.0" encoding="UTF-8" standalone="no"?>
<!DOCTYPE svg PUBLIC "-//W3C//DTD SVG 1.1//EN" "http://www.w3.org/Graphics/SVG/1.1/DTD/svg11.dtd">
<svg width="100%" height="100%" viewBox="0 0 1600 1600" version="1.1" xmlns="http://www.w3.org/2000/svg" xmlns:xlink="http://www.w3.org/1999/xlink" xml:space="preserve" xmlns:serif="http://www.serif.com/" style="fill-rule:evenodd;clip-rule:evenodd;stroke-linecap:round;stroke-linejoin:round;">
    <g id="use5350">
        <path id="path22" d="M529.922,51.006C618.064,51.006 689.023,125.136 689.023,217.217L689.023,1380.7C689.023,1472.78 618.063,1546.91 529.921,1546.91" style="fill:white;fill-rule:nonzero;stroke:rgb(13,13,13);stroke-width:103.5px;"/>
        <path id="path23" d="M362.324,1131.38L52.615,798.957L362.324,466.534L521.426,632.745L370.819,798.957L521.426,965.168L362.324,1135.89" style="fill:white;fill-rule:nonzero;stroke:black;stroke-width:103.5px;"/>
        <path id="path24" d="M1067.2,51.006C979.053,51.006 908.094,125.136 908.094,217.217L908.095,1380.7C908.095,1472.78 979.054,1546.91 1067.2,1546.91" style="fill:white;fill-rule:nonzero;stroke:rgb(13,13,13);stroke-width:103.5px;"/>
        <path id="path25" d="M1237.59,1131.38L1547.3,798.957L1237.59,466.534L1078.49,632.745L1229.1,798.957L1078.49,965.168L1237.59,1135.89" style="fill:white;fill-rule:nonzero;stroke:black;stroke-width:103.5px;"/>
    </g>
</svg>
