<?xml version="1.0" encoding="UTF-8" standalone="no"?>
<!DOCTYPE svg PUBLIC "-//W3C//DTD SVG 1.1//EN" "http://www.w3.org/Graphics/SVG/1.1/DTD/svg11.dtd">
<svg width="100%" height="100%" viewBox="0 0 24 24" version="1.1" xmlns="http://www.w3.org/2000/svg" xmlns:xlink="http://www.w3.org/1999/xlink" xml:space="preserve" xmlns:serif="http://www.serif.com/" style="fill-rule:evenodd;clip-rule:evenodd;stroke-linejoin:round;stroke-miterlimit:2;">
    <g>
        <g>
            <path d="M2.25,1.5C1.836,1.5 1.5,1.836 1.5,2.25L1.5,6.75C1.5,7.164 1.836,7.5 2.25,7.5L6.75,7.5C7.164,7.5 7.5,7.164 7.5,6.75L7.5,2.25C7.5,1.836 7.164,1.5 6.75,1.5L2.25,1.5Z" style="fill:white;"/>
            <path d="M8.945,3L8.945,4.5L12,4.5L12,12L4.5,12L4.5,9.012L3,9.012L3,21.75C3,22.161 3.339,22.5 3.75,22.5L12.75,22.5C13.162,22.5 13.5,22.161 13.5,21.75L13.5,13.5L21.75,13.5C22.162,13.5 22.5,13.161 22.5,12.75L22.5,3.75C22.5,3.338 22.162,3 21.75,3L8.945,3ZM13.5,4.5L21,4.5L21,12L13.5,12L13.5,4.5ZM4.5,13.5L12,13.5L12,21L4.5,21L4.5,13.5Z" style="fill:white;fill-opacity:0.55;fill-rule:nonzero;"/>
        </g>
    </g>
</svg>
