<?xml version="1.0" encoding="UTF-8" standalone="no"?>
<!DOCTYPE svg PUBLIC "-//W3C//DTD SVG 1.1//EN" "http://www.w3.org/Graphics/SVG/1.1/DTD/svg11.dtd">
<svg width="100%" height="100%" viewBox="0 0 24 24" version="1.1" xmlns="http://www.w3.org/2000/svg" xmlns:xlink="http://www.w3.org/1999/xlink" xml:space="preserve" xmlns:serif="http://www.serif.com/" style="fill-rule:evenodd;clip-rule:evenodd;stroke-linejoin:round;stroke-miterlimit:2;">
    <g>
        <g>
            <path d="M2.25,1.5C1.839,1.5 1.5,1.839 1.5,2.25L1.5,7.5L3,7.5L3,3L7.5,3L7.5,1.5L2.25,1.5ZM16.5,1.5L16.5,3L21,3L21,7.5L22.5,7.5L22.5,2.25C22.5,1.839 22.161,1.5 21.75,1.5L16.5,1.5ZM1.5,16.5L1.5,21.75C1.5,22.161 1.839,22.5 2.25,22.5L7.5,22.5L7.5,21L3,21L3,16.5L1.5,16.5ZM21,16.5L21,21L16.5,21L16.5,22.5L21.75,22.5C22.161,22.5 22.5,22.161 22.5,21.75L22.5,16.5L21,16.5Z" style="fill:white;fill-opacity:0.6;fill-rule:nonzero;"/>
            <path d="M6.75,6C6.336,6 6,6.336 6,6.75L6,17.25C6,17.664 6.336,18 6.75,18L17.25,18C17.664,18 18,17.664 18,17.25L18,6.75C18,6.336 17.664,6 17.25,6L6.75,6Z" style="fill:white;fill-rule:nonzero;"/>
        </g>
    </g>
</svg>
