<?xml version="1.0" encoding="UTF-8" standalone="no"?>
<!DOCTYPE svg PUBLIC "-//W3C//DTD SVG 1.1//EN" "http://www.w3.org/Graphics/SVG/1.1/DTD/svg11.dtd">
<svg width="100%" height="100%" viewBox="0 0 24 24" version="1.1" xmlns="http://www.w3.org/2000/svg" xmlns:xlink="http://www.w3.org/1999/xlink" xml:space="preserve" xmlns:serif="http://www.serif.com/" style="fill-rule:evenodd;clip-rule:evenodd;stroke-linejoin:round;stroke-miterlimit:2;">
    <g>
        <g>
            <g>
                <path d="M21.75,1.5C22.164,1.5 22.5,1.836 22.5,2.25L22.5,8.25C22.5,8.664 22.164,9 21.75,9L15.75,9C15.336,9 15,8.664 15,8.25L15,2.25C15,1.836 15.336,1.5 15.75,1.5L21.75,1.5Z" style="fill:white;fill-rule:nonzero;"/>
            </g>
            <path d="M21,21.75C21,22.161 20.661,22.5 20.25,22.5L15.75,22.5C15.339,22.5 15,22.161 15,21.75L15,20.988L7.5,20.988L7.5,21.75C7.5,22.161 7.161,22.5 6.75,22.5L2.25,22.5C1.839,22.5 1.5,22.161 1.5,21.75L1.5,17.25C1.5,16.839 1.839,16.5 2.25,16.5L3,16.5L3,9L2.25,9C1.839,9 1.5,8.661 1.5,8.25L1.5,3.75C1.5,3.339 1.839,3 2.25,3L6.75,3C7.161,3 7.5,3.339 7.5,3.75L7.5,4.488L12.75,4.488C12.754,4.488 12.757,4.488 12.761,4.488C13.172,4.488 13.511,4.827 13.511,5.238C13.511,5.65 13.172,5.988 12.761,5.988C12.757,5.988 12.754,5.988 12.75,5.988L7.5,5.988L7.5,8.25C7.5,8.661 7.161,9 6.75,9L4.5,9L4.5,16.5L6.75,16.5C7.161,16.5 7.5,16.839 7.5,17.25L7.5,19.488L15,19.488L15,17.25C15,16.839 15.339,16.5 15.75,16.5L18,16.5L18,11.25C18,11.246 18,11.243 18,11.239C18,10.828 18.339,10.489 18.75,10.489C19.161,10.489 19.5,10.828 19.5,11.239C19.5,11.243 19.5,11.246 19.5,11.25L19.5,16.5L20.25,16.5C20.661,16.5 21,16.839 21,17.25L21,21.75ZM19.5,21L19.5,18L16.5,18L16.5,20.121C16.513,20.201 16.513,20.282 16.5,20.361L16.5,21L19.5,21ZM6,21L6,18L3,18L3,21L6,21ZM6,7.5L6,4.5L3,4.5L3,7.5L6,7.5Z" style="fill:white;fill-opacity:0.6;fill-rule:nonzero;"/>
        </g>
    </g>
</svg>
